HIERARCHY
ROOT Hips
{
	OFFSET -0.001795 -0.223333 0.028219
	CHANNELS 6 Xposition Yposition Zposition Zrotation Yrotation Xrotation 
	JOINT LeftUpLeg
	{
		OFFSET 0.069520 -0.091406 -0.006815
		CHANNELS 3 Zrotation Yrotation Xrotation
		JOINT LeftLeg
		{
			OFFSET 0.034277 -0.375199 -0.004496
			CHANNELS 3 Zrotation Yrotation Xrotation
			JOINT LeftFoot
			{
				OFFSET -0.013596 -0.397961 -0.043693
				CHANNELS 3 Zrotation Yrotation Xrotation
				JOINT LeftToe
				{
					OFFSET 0.026358 -0.055791 0.119288
					CHANNELS 3 Zrotation Yrotation Xrotation
					End Site
					{
						OFFSET 0.000000 0.000000 0.000000
					}
				}
			}
		}
	}
	JOINT RightUpLeg
	{
		OFFSET -0.067670 -0.090522 -0.004320
		CHANNELS 3 Zrotation Yrotation Xrotation
		JOINT RightLeg
		{
			OFFSET -0.038290 -0.382569 -0.008850
			CHANNELS 3 Zrotation Yrotation Xrotation
			JOINT RightFoot
			{
				OFFSET 0.015774 -0.398415 -0.042312
				CHANNELS 3 Zrotation Yrotation Xrotation
				JOINT RightToe
				{
					OFFSET -0.025372 -0.048144 0.123348
					CHANNELS 3 Zrotation Yrotation Xrotation
					End Site
					{
						OFFSET 0.000000 0.000000 0.000000
					}
				}
			}
		}
	}
	JOINT Spine
	{
		OFFSET -0.002533 0.108963 -0.026696
		CHANNELS 3 Zrotation Yrotation Xrotation
		JOINT Spine1
		{
			OFFSET 0.005487 0.135180 0.001092
			CHANNELS 3 Zrotation Yrotation Xrotation
			JOINT Spine2
			{
				OFFSET 0.001457 0.052922 0.025425
				CHANNELS 3 Zrotation Yrotation Xrotation
				JOINT Neck
				{
					OFFSET -0.002778 0.213870 -0.042857
					CHANNELS 3 Zrotation Yrotation Xrotation
					JOINT Head
					{
						OFFSET 0.005152 0.064970 0.051349
						CHANNELS 3 Zrotation Yrotation Xrotation
						End Site
						{
							OFFSET 0.000000 0.000000 0.000000
						}
					}
				}
				JOINT LeftShoulder
				{
					OFFSET 0.078845 0.121749 -0.034090
					CHANNELS 3 Zrotation Yrotation Xrotation
					JOINT LeftArm
					{
						OFFSET 0.090977 0.030469 -0.008868
						CHANNELS 3 Zrotation Yrotation Xrotation
						JOINT LeftForeArm
						{
							OFFSET 0.259612 -0.012772 -0.027456
							CHANNELS 3 Zrotation Yrotation Xrotation
							JOINT LeftHand
							{
								OFFSET 0.249234 0.008986 -0.001171
								CHANNELS 3 Zrotation Yrotation Xrotation
								End Site
								{
									OFFSET 0.000000 0.000000 0.000000
								}
							}
						}
					}
				}
				JOINT RightShoulder
				{
					OFFSET -0.081759 0.118833 -0.038615
					CHANNELS 3 Zrotation Yrotation Xrotation
					JOINT RightArm
					{
						OFFSET -0.096012 0.032551 -0.009143
						CHANNELS 3 Zrotation Yrotation Xrotation
						JOINT RightForeArm
						{
							OFFSET -0.253742 -0.013329 -0.021401
							CHANNELS 3 Zrotation Yrotation Xrotation
							JOINT RightHand
							{
								OFFSET -0.255298 0.007772 -0.005559
								CHANNELS 3 Zrotation Yrotation Xrotation
								End Site
								{
									OFFSET 0.000000 0.000000 0.000000
								}
							}
						}
					}
				}
			}
		}
	}
}
MOTION
Frames: 16
Frame Time: 0.050000
0.000000 0.932163 0.000000 -2.224987 0.642348 -0.124472 2.240923 -0.033144 -0.042204 -3.826344 0.411912 1.027034 2.643718 6.030037 1.337722 0.000000 0.000000 0.000000 -3.638441 0.743352 -9.719741 9.371510 -2.538542 31.394055 -5.800176 -14.850738 3.242636 0.000000 0.000000 0.000000 -4.104495 -0.069778 14.945709 4.409923 -0.526990 -22.906690 -0.661564 0.529541 27.156735 1.364024 1.188520 -29.752754 0.000000 0.000000 0.000000 -30.476405 -3.100429 -0.306826 -39.466105 -14.926818 -2.004417 -16.286738 -30.872120 5.961163 0.000000 0.000000 0.000000 21.038769 8.950771 4.185429 48.971442 13.922651 -1.645432 10.466697 32.391205 4.406448 0.000000 0.000000 0.000000 
0.003059 0.931086 0.013353 -3.183518 0.922245 -0.659265 3.600996 0.097047 2.502333 -4.644145 0.491187 -0.894886 2.487168 5.465784 0.634673 0.000000 0.000000 0.000000 -3.624452 0.913603 -12.314101 11.030506 -3.503863 34.652112 -7.521541 -18.835231 13.238776 0.000000 0.000000 0.000000 -3.640509 -0.168549 16.142960 4.586881 -0.540165 -23.407321 -0.434285 -0.046128 27.633931 1.742005 0.957615 -30.408890 0.000000 0.000000 0.000000 -30.991726 -1.922695 -0.937795 -40.320652 -15.632534 -1.909407 -15.833003 -29.872724 5.702062 0.000000 0.000000 0.000000 19.718479 8.900362 4.032467 51.626201 13.097038 -2.006288 11.133346 34.238543 4.975725 0.000000 0.000000 0.000000 
0.004465 0.931783 0.028325 -3.393734 0.740746 -0.818683 4.098154 0.136053 3.501967 -5.237702 0.556792 -0.527824 2.499430 5.455825 0.532496 0.000000 0.000000 0.000000 -4.617160 1.083320 -16.672538 12.228909 -3.938123 33.963977 -6.169836 -14.878407 -3.541646 0.000000 0.000000 0.000000 -3.925489 -0.129783 16.354317 5.416474 -0.756610 -23.405493 -0.387859 -0.285893 27.955904 -0.682875 2.196990 -30.592487 0.000000 0.000000 0.000000 -30.676186 -2.561981 -0.322135 -40.084181 -15.987561 -1.852944 -15.656728 -29.839405 5.646100 0.000000 0.000000 0.000000 18.631995 9.708508 4.317886 52.034443 12.011044 -2.429130 10.745487 34.559338 4.856602 0.000000 0.000000 0.000000 
0.004966 0.930693 0.045988 -3.827873 0.748489 -1.331333 4.829152 0.196873 5.400020 -5.652488 0.596038 -0.759679 2.510292 5.239320 -0.129676 0.000000 0.000000 0.000000 -4.170414 1.198460 -17.672895 11.230272 -3.022823 27.352647 -6.231911 -15.656174 1.980647 0.000000 0.000000 0.000000 -4.204020 -0.111429 17.756801 5.849373 -0.782401 -24.578681 0.468388 -1.144665 28.366952 -1.726315 2.654468 -32.318953 0.000000 0.000000 0.000000 -31.815862 -1.879317 -0.457569 -39.158388 -16.021585 -2.015811 -17.649781 -31.831636 6.711280 0.000000 0.000000 0.000000 17.698014 9.617604 4.031795 51.151473 11.171884 -2.811774 12.903811 35.259957 5.564955 0.000000 0.000000 0.000000 
0.004327 0.928390 0.066169 -4.070097 1.061452 -1.789532 5.106607 0.254830 7.177383 -5.408729 0.569571 -0.637539 2.542756 4.900196 -1.198189 0.000000 0.000000 0.000000 -4.344580 1.236026 -18.945206 10.873886 -2.391079 19.390013 -15.090453 -27.851496 32.747199 0.000000 0.000000 0.000000 -4.008163 -0.169848 18.639987 6.621104 -1.033238 -23.788062 0.141162 -0.934253 26.966302 -1.685863 2.703109 -32.162136 0.000000 0.000000 0.000000 -31.863465 -1.613793 -0.909457 -39.056303 -15.733869 -1.904156 -18.840557 -33.472350 7.410977 0.000000 0.000000 0.000000 17.394682 8.618307 3.541770 51.268826 9.854275 -3.223256 13.654236 35.676557 5.879640 0.000000 0.000000 0.000000 
0.002612 0.925857 0.089016 -4.194792 2.114507 -1.870693 5.575552 0.246272 8.648589 -5.342557 0.549729 -0.600924 2.274717 3.930041 -2.070261 0.000000 0.000000 0.000000 -5.085584 1.122003 -19.716764 10.374649 -1.694087 9.183637 -31.316010 -35.841009 60.811790 0.000000 0.000000 0.000000 -3.574376 -0.297696 19.595088 6.183001 -0.835905 -24.749789 0.584585 -2.170466 26.670650 -2.765014 3.160291 -33.082824 0.000000 0.000000 0.000000 -31.964851 -1.250610 -0.923384 -39.680236 -15.345323 -2.083711 -20.025445 -35.316937 8.319075 0.000000 0.000000 0.000000 17.378309 8.231771 3.182307 51.074750 7.485765 -4.145012 14.648401 36.727830 6.337729 0.000000 0.000000 0.000000 
-0.000562 0.921038 0.114774 -4.071867 3.084134 -1.686945 5.296914 0.296782 10.214404 -4.197628 0.427487 -0.852742 2.276845 3.256256 -3.490550 0.000000 0.000000 0.000000 -5.232286 1.092484 -20.430240 8.769822 -1.048657 0.796865 -29.601186 -36.440165 53.603747 0.000000 0.000000 0.000000 -3.068922 -0.418691 19.655678 6.452076 -0.904145 -24.511874 -0.300647 -2.372559 25.820008 -2.843697 3.248679 -32.660842 0.000000 0.000000 0.000000 -31.798799 -1.339355 -1.077686 -39.911902 -14.940494 -2.075413 -20.858413 -36.751190 8.930478 0.000000 0.000000 0.000000 18.192580 7.769054 3.022663 50.658973 5.900608 -4.701558 14.796776 37.257580 6.507878 0.000000 0.000000 0.000000 
-0.005445 0.914931 0.143254 -3.488715 4.526286 -1.900253 5.095730 0.335134 12.031811 -3.507774 0.351583 -0.530812 2.097361 2.053519 -4.902389 0.000000 0.000000 0.000000 -5.512602 0.979084 -20.563328 7.368397 -0.843110 -1.297781 -13.122154 -25.468627 28.791478 0.000000 0.000000 0.000000 -2.946150 -0.506396 20.161572 6.223710 -0.809270 -24.810612 -0.541646 -2.439045 25.143424 -3.027291 3.458302 -32.719880 0.000000 0.000000 0.000000 -31.761372 -2.325457 -0.774012 -40.098984 -15.237177 -1.818809 -21.315712 -38.414697 9.448419 0.000000 0.000000 0.000000 19.059967 7.914354 3.292837 50.355716 4.745139 -5.115601 13.202304 37.401878 6.048679 0.000000 0.000000 0.000000 
-0.012283 0.907382 0.174222 -3.171900 5.672938 -1.895260 5.250781 0.309931 13.560900 -2.653368 0.256686 0.211265 2.188815 1.287999 -6.521700 0.000000 0.000000 0.000000 -5.216260 1.001007 -21.242404 6.584885 -0.832874 1.471140 -7.600522 -18.254669 21.651118 0.000000 0.000000 0.000000 -2.351235 -0.649284 20.124084 5.743717 -0.693146 -24.456786 -0.893893 -2.304431 24.259149 -2.674653 3.387474 -31.874917 0.000000 0.000000 0.000000 -32.092929 -2.944082 -0.805962 -40.049908 -16.149694 -1.316037 -20.735510 -39.155849 9.316085 0.000000 0.000000 0.000000 20.358460 8.043201 3.590175 49.888004 4.060124 -5.302757 12.323769 37.689228 5.851498 0.000000 0.000000 0.000000 
-0.020970 0.901184 0.207807 -3.082864 6.512859 -2.035454 5.869107 0.208138 15.338907 -1.922337 0.166554 0.995246 2.117845 0.821537 -6.885520 0.000000 0.000000 0.000000 -5.283425 0.955875 -21.625215 7.456524 -1.118282 5.734324 -6.840382 -16.976469 19.881467 0.000000 0.000000 0.000000 -1.754517 -0.787104 20.133770 5.332898 -0.557729 -24.821270 -0.778168 -1.968085 24.301568 -2.181407 3.269003 -31.919277 0.000000 0.000000 0.000000 -31.982954 -3.762778 -0.607198 -40.145977 -16.949003 -0.945858 -20.755589 -40.411835 9.571603 0.000000 0.000000 0.000000 20.402397 8.036147 3.836196 49.985748 3.583674 -5.555359 11.832454 38.124746 5.850187 0.000000 0.000000 0.000000 
-0.031208 0.897486 0.243512 -3.459083 7.500904 -1.894727 7.404101 -0.110998 16.069771 -1.591562 0.081649 2.906452 1.656646 0.353663 -5.679878 0.000000 0.000000 0.000000 -4.925460 0.987118 -21.918800 8.975348 -1.665775 9.991360 -7.354821 -17.665931 17.307174 0.000000 0.000000 0.000000 -0.868357 -0.943152 19.490919 4.932953 -0.452393 -24.649261 -0.293643 -2.077961 24.165421 -2.821259 3.659605 -32.031418 0.000000 0.000000 0.000000 -32.289469 -4.153308 -0.594798 -40.252628 -17.282649 -0.761395 -20.521010 -40.395090 9.431717 0.000000 0.000000 0.000000 20.415348 8.235790 4.091511 49.568356 3.790120 -5.457629 11.678055 37.424828 5.693140 0.000000 0.000000 0.000000 
-0.042451 0.898312 0.280517 -3.532594 8.211850 -1.639410 8.801659 -0.396844 15.494225 -1.887540 -0.003327 7.147908 1.042177 0.899750 -2.301127 0.000000 0.000000 0.000000 -4.203780 1.083185 -21.486711 9.657263 -2.069630 13.054563 -8.025580 -18.861491 13.061041 0.000000 0.000000 0.000000 -0.051081 -1.100528 19.348541 4.950956 -0.385663 -25.787214 -0.306064 -2.225184 24.625952 -2.083729 3.338381 -32.372751 0.000000 0.000000 0.000000 -32.817177 -4.054388 -0.838126 -40.409101 -16.925436 -0.858959 -20.507511 -38.653599 8.962241 0.000000 0.000000 0.000000 20.824954 7.909151 4.026101 48.335159 4.322583 -5.207764 12.876329 36.905725 5.986355 0.000000 0.000000 0.000000 
-0.053717 0.901483 0.317637 -3.608682 8.234608 -1.544195 10.350667 -0.596007 13.129075 -2.588655 -0.127529 14.546344 -0.282312 1.419414 3.736307 0.000000 0.000000 0.000000 -3.178006 1.210432 -19.807236 10.141614 -2.289311 14.183763 -8.160134 -19.332560 9.668854 0.000000 0.000000 0.000000 0.399451 -1.095303 18.252919 5.306190 -0.537298 -24.559997 -0.245105 -2.707886 23.934721 -2.451853 3.426274 -31.631424 0.000000 0.000000 0.000000 -32.526701 -3.001912 -1.363787 -41.651939 -16.469322 -1.009911 -19.545483 -36.373006 8.104486 0.000000 0.000000 0.000000 20.560452 8.532553 4.196523 48.300077 4.618674 -4.981970 11.438227 37.152570 5.489651 0.000000 0.000000 0.000000 
-0.063383 0.906850 0.352348 -3.822423 7.922012 -1.222019 12.030951 -0.642593 7.930958 -3.973085 -0.191383 25.751248 -1.796481 2.675206 12.433869 0.000000 0.000000 0.000000 -1.291119 1.432572 -17.909928 9.193098 -2.026275 14.257466 -8.046513 -19.316661 7.498871 0.000000 0.000000 0.000000 1.221900 -1.147264 17.300193 5.116421 -0.491905 -24.572204 0.396541 -2.185787 23.966743 -3.135349 3.810287 -30.890886 0.000000 0.000000 0.000000 -32.817176 -2.578980 -1.850426 -41.589784 -14.254971 -1.685245 -19.336909 -34.688300 7.599251 0.000000 0.000000 0.000000 19.559332 8.559290 4.255642 47.935475 5.118136 -4.771374 11.517456 36.902872 5.489503 0.000000 0.000000 0.000000 
-0.070614 0.911967 0.384109 -3.920982 7.623993 -1.822088 13.873582 -0.552595 2.149142 -6.687481 0.428837 37.450205 -0.863931 5.271660 15.810410 0.000000 0.000000 0.000000 0.128099 1.427001 -15.065112 8.489481 -1.825974 14.166650 -7.844041 -19.064061 5.909005 0.000000 0.000000 0.000000 2.003558 -1.308369 17.849738 5.165697 -0.463789 -25.459767 1.065530 -1.524697 24.420280 -4.205133 4.440472 -31.300237 0.000000 0.000000 0.000000 -33.735114 -1.490277 -2.944492 -41.178991 -11.577630 -2.499404 -19.796946 -33.238612 7.362883 0.000000 0.000000 0.000000 18.661081 8.588687 4.339383 47.132855 4.812688 -4.870436 12.436700 37.643383 5.938691 0.000000 0.000000 0.000000 
-0.075411 0.915924 0.413826 -3.186390 7.070696 -2.268871 14.391597 -0.302495 -3.684629 -9.562941 1.776149 44.707948 2.243576 8.441240 10.807471 0.000000 0.000000 0.000000 0.381779 1.217688 -12.260499 7.881661 -1.621555 13.838302 -7.499958 -18.486270 4.176751 0.000000 0.000000 0.000000 1.863660 -1.276392 18.064384 5.162322 -0.467057 -25.608641 1.459798 -0.055856 25.236229 -3.477255 4.267590 -30.832882 0.000000 0.000000 0.000000 -34.036952 -0.558135 -4.157557 -41.437337 -10.231500 -2.835804 -20.000933 -31.813007 7.021541 0.000000 0.000000 0.000000 18.160758 8.717776 4.671691 46.229391 6.296855 -4.392076 12.840527 37.630476 6.159938 0.000000 0.000000 0.000000 
